<?xml version="1.0" encoding="iso-8859-1"?>
<!-- Uploaded to: SVG Repo, www.svgrepo.com, Generator: SVG Repo Mixer Tools -->
<svg fill="#000000" height="800px" width="800px" version="1.1" id="Layer_1" xmlns="http://www.w3.org/2000/svg" xmlns:xlink="http://www.w3.org/1999/xlink" 
	 viewBox="0 0 512 512" xml:space="preserve">
<g>
	<g>
		<path d="M181.299,117.766H71.238c-4.695,0-8.502,3.807-8.502,8.502s3.807,8.502,8.502,8.502h110.062
			c4.695,0,8.502-3.807,8.502-8.502S185.995,117.766,181.299,117.766z"/>
	</g>
</g>
<g>
	<g>
		<path d="M181.299,353.299H134.77V306.77c0-4.696-3.807-8.502-8.502-8.502s-8.502,3.807-8.502,8.502v46.529H71.238
			c-4.695,0-8.502,3.807-8.502,8.502s3.807,8.502,8.502,8.502h46.529v46.529c0,4.695,3.807,8.502,8.502,8.502
			s8.502-3.806,8.502-8.502v-46.529h46.529c4.695,0,8.502-3.807,8.502-8.502S185.995,353.299,181.299,353.299z"/>
	</g>
</g>
<g>
	<g>
		<path d="M406.726,159.169l-32.902-32.902l32.902-32.902c3.32-3.319,3.32-8.702,0-12.023s-8.703-3.32-12.023,0l-32.902,32.902
			l-32.902-32.902c-3.32-3.32-8.703-3.32-12.023,0c-3.32,3.32-3.32,8.703,0,12.023l32.902,32.902l-32.902,32.902
			c-3.32,3.32-3.32,8.703,0,12.023c1.659,1.66,3.836,2.49,6.011,2.49c2.175,0,4.352-0.83,6.011-2.49l32.902-32.902l32.902,32.902
			c1.66,1.661,3.836,2.49,6.011,2.49c2.175,0,4.352-0.83,6.011-2.49C410.047,167.871,410.047,162.488,406.726,159.169z"/>
	</g>
</g>
<g>
	<g>
		<path d="M403.854,332.897H319.75c-4.695,0-8.502,3.806-8.502,8.502c0,4.695,3.807,8.502,8.502,8.502h84.103
			c4.695,0,8.502-3.807,8.502-8.502C412.355,336.704,408.549,332.897,403.854,332.897z"/>
	</g>
</g>
<g>
	<g>
		<path d="M403.854,373.701H319.75c-4.695,0-8.502,3.806-8.502,8.502c0,4.695,3.807,8.502,8.502,8.502h84.103
			c4.695,0,8.502-3.807,8.502-8.502C412.355,377.508,408.549,373.701,403.854,373.701z"/>
	</g>
</g>
<g>
	<g>
		<path d="M488.069,280.548V88.108c0-4.695-3.807-8.502-8.502-8.502c-4.695,0-8.502,3.807-8.502,8.502v170.626
			c-16.955-17.986-37.97-31.394-61.127-39.221c-0.023-0.008-0.047-0.015-0.069-0.023c-15.453-5.212-31.76-7.887-48.068-7.887
			c-29.917,0-57.816,8.795-81.256,23.932h-28.009V17.003h218.53v37.608c0,4.695,3.807,8.502,8.502,8.502
			c4.695,0,8.502-3.807,8.502-8.502V8.502c0-4.695-3.806-8.502-8.502-8.502H8.502C3.807,0,0,3.807,0,8.502v392.87
			c0,4.695,3.807,8.502,8.502,8.502s8.502-3.807,8.502-8.502V252.537h218.53v28.01c-15.135,23.439-23.931,51.338-23.931,81.254
			c0,16.28,2.656,32.597,7.873,48.022c0.015,0.043,0.028,0.086,0.043,0.129c7.828,23.153,21.235,44.164,39.219,61.116H17.003v-36.11
			c0-4.695-3.807-8.502-8.502-8.502S0,430.263,0,434.959v44.611c0,4.695,3.807,8.502,8.502,8.502h272.049
			C303.989,503.206,331.887,512,361.802,512c26.769,0,53.062-7.141,76.034-20.652c4.047-2.38,5.398-7.591,3.019-11.638
			c-2.38-4.048-7.59-5.399-11.638-3.019c-20.361,11.975-43.673,18.305-67.414,18.305c-57.236,0-106.15-36.289-124.956-87.065
			c-5.447-14.707-8.24-30.448-8.24-46.13c0-73.445,59.751-133.195,133.196-133.195c14.642,0,29.282,2.42,43.134,7.172
			c0.784,0.27,1.567,0.544,2.344,0.828c0.214,0.078,0.427,0.158,0.642,0.237c50.781,18.802,87.074,67.72,87.074,124.958
			c0,36.4-14.415,70.395-40.589,95.724c-3.375,3.265-3.463,8.647-0.197,12.021c3.265,3.375,8.647,3.463,12.021,0.197
			C495.746,441.182,512,402.847,512,361.8C512,331.885,503.205,303.987,488.069,280.548z M235.534,235.534H17.003V17.003h218.53
			V235.534z M252.537,258.857v-6.32h6.32C256.688,254.581,254.581,256.688,252.537,258.857z"/>
	</g>
</g>
</svg>