<svg id="svg" fill="#3DD06F" stroke="#3DD06F" width="200" height="200" version="1.1" viewBox="144 144 512 512" xmlns="http://www.w3.org/2000/svg">
    <g id="IconSvg_bgCarrier" stroke-width="0"></g>
    <g id="IconSvg_tracerCarrier" stroke-linecap="round" stroke-linejoin="round" stroke="#CCCCCC" stroke-width="0">
      <g xmlns="http://www.w3.org/2000/svg">
  <path d="m300.04 277.84c-3.1719-2.7148-7.293-4.0625-11.453-3.7383-4.1641 0.32031-8.0273 2.2852-10.746 5.4531l-94.465 110.21v0.003906c-2.4375 2.8516-3.7773 6.4805-3.7773 10.234 0 3.75 1.3398 7.3789 3.7773 10.23l94.465 110.21v0.003906c2.6602 3.3516 6.5664 5.4766 10.828 5.8867 4.2578 0.41016 8.5-0.92969 11.75-3.7109 3.25-2.7852 5.2266-6.7695 5.4766-11.043 0.25-4.2695-1.25-8.457-4.1562-11.602l-85.676-99.973 85.676-99.977c2.7148-3.168 4.0586-7.2852 3.7422-11.441-0.32031-4.1602-2.2773-8.0234-5.4414-10.742z"></path>
  <path d="m616.62 389.77-94.465-110.21v-0.003906c-2.6602-3.3516-6.5664-5.4766-10.824-5.8867-4.2617-0.41016-8.5039 0.92969-11.75 3.7148-3.25 2.7812-5.2305 6.7656-5.4766 11.039-0.25 4.2695 1.25 8.4609 4.1523 11.602l85.68 99.977-85.68 99.977v-0.003906c-2.9023 3.1445-4.4023 7.332-4.1523 11.602 0.24609 4.2734 2.2266 8.2578 5.4766 11.043 3.2461 2.7812 7.4883 4.1211 11.75 3.7109 4.2578-0.41016 8.1641-2.5352 10.824-5.8867l94.465-110.21v-0.003906c2.4375-2.8516 3.7812-6.4805 3.7812-10.23 0-3.7539-1.3438-7.3828-3.7812-10.234z"></path>
  <path d="m453.43 275.32c-3.8359-1.6445-8.1719-1.6953-12.047-0.14844-3.8789 1.5508-6.9805 4.5781-8.625 8.4141l-94.465 220.42c-1.6445 3.8359-1.6953 8.1719-0.14844 12.047 1.5508 3.8789 4.5781 6.9805 8.4141 8.625 1.957 0.85156 4.0703 1.2852 6.2031 1.2734 3.082 0 6.0938-0.90234 8.668-2.5977 2.5703-1.6953 4.5859-4.1094 5.8008-6.9414l94.465-220.42c1.6445-3.8359 1.6992-8.168 0.14844-12.047-1.5508-3.875-4.5781-6.9766-8.4141-8.625z"></path>
 </g>

      </g>
     <g id="IconSvg_iconCarrier">
      <g xmlns="http://www.w3.org/2000/svg">
  <path d="m300.04 277.84c-3.1719-2.7148-7.293-4.0625-11.453-3.7383-4.1641 0.32031-8.0273 2.2852-10.746 5.4531l-94.465 110.21v0.003906c-2.4375 2.8516-3.7773 6.4805-3.7773 10.234 0 3.75 1.3398 7.3789 3.7773 10.23l94.465 110.21v0.003906c2.6602 3.3516 6.5664 5.4766 10.828 5.8867 4.2578 0.41016 8.5-0.92969 11.75-3.7109 3.25-2.7852 5.2266-6.7695 5.4766-11.043 0.25-4.2695-1.25-8.457-4.1562-11.602l-85.676-99.973 85.676-99.977c2.7148-3.168 4.0586-7.2852 3.7422-11.441-0.32031-4.1602-2.2773-8.0234-5.4414-10.742z"></path>
  <path d="m616.62 389.77-94.465-110.21v-0.003906c-2.6602-3.3516-6.5664-5.4766-10.824-5.8867-4.2617-0.41016-8.5039 0.92969-11.75 3.7148-3.25 2.7812-5.2305 6.7656-5.4766 11.039-0.25 4.2695 1.25 8.4609 4.1523 11.602l85.68 99.977-85.68 99.977v-0.003906c-2.9023 3.1445-4.4023 7.332-4.1523 11.602 0.24609 4.2734 2.2266 8.2578 5.4766 11.043 3.2461 2.7812 7.4883 4.1211 11.75 3.7109 4.2578-0.41016 8.1641-2.5352 10.824-5.8867l94.465-110.21v-0.003906c2.4375-2.8516 3.7812-6.4805 3.7812-10.23 0-3.7539-1.3438-7.3828-3.7812-10.234z"></path>
  <path d="m453.43 275.32c-3.8359-1.6445-8.1719-1.6953-12.047-0.14844-3.8789 1.5508-6.9805 4.5781-8.625 8.4141l-94.465 220.42c-1.6445 3.8359-1.6953 8.1719-0.14844 12.047 1.5508 3.8789 4.5781 6.9805 8.4141 8.625 1.957 0.85156 4.0703 1.2852 6.2031 1.2734 3.082 0 6.0938-0.90234 8.668-2.5977 2.5703-1.6953 4.5859-4.1094 5.8008-6.9414l94.465-220.42c1.6445-3.8359 1.6992-8.168 0.14844-12.047-1.5508-3.875-4.5781-6.9766-8.4141-8.625z"></path>
 </g>

      </g>
      </svg>