<svg id="svg" fill="#162d71" stroke="#162d71" width="200" height="200" version="1.1" viewBox="144 144 512 512" xmlns="http://www.w3.org/2000/svg">
    <g id="IconSvg_bgCarrier" stroke-width="0"></g>
    <g id="IconSvg_tracerCarrier" stroke-linecap="round" stroke-linejoin="round" stroke="#CCCCCC" stroke-width="0">
      <g xmlns="http://www.w3.org/2000/svg">
  <path d="m603.41 491.47h-406.82c-4.4844 0-8.7852-1.7695-11.969-4.9258-3.1836-3.1562-4.9922-7.4375-5.0352-11.922v-218.05c0.20703-13.043 5.5781-25.473 14.934-34.559 9.3555-9.0898 21.934-14.102 34.977-13.934h341.02c13.043-0.16797 25.621 4.8438 34.977 13.934 9.3555 9.0859 14.723 21.516 14.93 34.559v218.05c-0.039062 4.4844-1.8516 8.7656-5.0352 11.922s-7.4844 4.9258-11.969 4.9258zm-392.34-31.488h377.86v-203.41c-0.20312-4.6914-2.2539-9.1133-5.707-12.297-3.4492-3.1875-8.0195-4.8789-12.711-4.707h-341.02c-4.6953-0.17188-9.2656 1.5195-12.715 4.707-3.4531 3.1836-5.5039 7.6055-5.707 12.297z"></path>
  <path d="m588.93 604.67h-377.86c-12.527 0-24.539-4.9766-33.398-13.836-8.8594-8.8555-13.836-20.871-13.836-33.398v-31.488c0-4.1758 1.6602-8.1797 4.6133-11.133 2.9531-2.9492 6.957-4.6094 11.133-4.6094h440.83c4.1758 0 8.1797 1.6602 11.133 4.6094 2.9531 2.9531 4.6133 6.957 4.6133 11.133v31.488c0 12.527-4.9766 24.543-13.836 33.398-8.8555 8.8594-20.871 13.836-33.398 13.836zm-393.6-62.977v15.742c0 4.1758 1.6602 8.1797 4.6133 11.133 2.9531 2.9531 6.957 4.6133 11.133 4.6133h377.86c4.1758 0 8.1797-1.6602 11.133-4.6133 2.9531-2.9531 4.6133-6.957 4.6133-11.133v-15.742z"></path>
 </g>

      </g>
     <g id="IconSvg_iconCarrier">
      <g xmlns="http://www.w3.org/2000/svg">
  <path d="m603.41 491.47h-406.82c-4.4844 0-8.7852-1.7695-11.969-4.9258-3.1836-3.1562-4.9922-7.4375-5.0352-11.922v-218.05c0.20703-13.043 5.5781-25.473 14.934-34.559 9.3555-9.0898 21.934-14.102 34.977-13.934h341.02c13.043-0.16797 25.621 4.8438 34.977 13.934 9.3555 9.0859 14.723 21.516 14.93 34.559v218.05c-0.039062 4.4844-1.8516 8.7656-5.0352 11.922s-7.4844 4.9258-11.969 4.9258zm-392.34-31.488h377.86v-203.41c-0.20312-4.6914-2.2539-9.1133-5.707-12.297-3.4492-3.1875-8.0195-4.8789-12.711-4.707h-341.02c-4.6953-0.17188-9.2656 1.5195-12.715 4.707-3.4531 3.1836-5.5039 7.6055-5.707 12.297z"></path>
  <path d="m588.93 604.67h-377.86c-12.527 0-24.539-4.9766-33.398-13.836-8.8594-8.8555-13.836-20.871-13.836-33.398v-31.488c0-4.1758 1.6602-8.1797 4.6133-11.133 2.9531-2.9492 6.957-4.6094 11.133-4.6094h440.83c4.1758 0 8.1797 1.6602 11.133 4.6094 2.9531 2.9531 4.6133 6.957 4.6133 11.133v31.488c0 12.527-4.9766 24.543-13.836 33.398-8.8555 8.8594-20.871 13.836-33.398 13.836zm-393.6-62.977v15.742c0 4.1758 1.6602 8.1797 4.6133 11.133 2.9531 2.9531 6.957 4.6133 11.133 4.6133h377.86c4.1758 0 8.1797-1.6602 11.133-4.6133 2.9531-2.9531 4.6133-6.957 4.6133-11.133v-15.742z"></path>
 </g>

      </g>
      </svg>