<svg id="svg" fill="#FF0000" stroke="#FF0000" width="200" height="200" version="1.1" viewBox="144 144 512 512" xmlns="http://www.w3.org/2000/svg">
    <g id="IconSvg_bgCarrier" stroke-width="0"></g>
    <g id="IconSvg_tracerCarrier" stroke-linecap="round" stroke-linejoin="round" stroke="#CCCCCC" stroke-width="0">
      <g xmlns="http://www.w3.org/2000/svg">
  <path d="m609.76 257.91 0.81641 15.453c0.3125 5.8828 5.1758 10.441 10.996 10.441 0.19531 0 0.39063-0.003906 0.59375-0.015625 6.0781-0.32031 10.742-5.5078 10.426-11.586l-2.4648-46.781c0-0.015625-0.007812-0.03125-0.007812-0.046875-0.019532-0.30469-0.097657-0.61328-0.14063-0.92188-0.0625-0.44922-0.10547-0.90234-0.22266-1.332 0-0.003907 0-0.007813-0.003906-0.011719-0.011719-0.050781-0.039062-0.089844-0.054688-0.13672-1.1797-4.1953-4.7109-7.3359-9.0938-7.8906-0.12891-0.019531-0.26172-0.003906-0.39062-0.015625-0.55078-0.050781-1.1055-0.10156-1.6797-0.066406-0.011719 0-0.023438 0.007812-0.039062 0.007812-0.37891 0.023438-0.75391 0.11328-1.1367 0.17578-0.36719 0.058593-0.73828 0.089843-1.0938 0.18359-0.015625 0.003907-0.03125 0.003907-0.046875 0.007813l-44.297 12.051c-5.8711 1.5977-9.3398 7.6562-7.7383 13.527 1.3359 4.9062 5.7773 8.1289 10.629 8.1289 0.95703 0 1.9297-0.125 2.8984-0.39062l14.34-3.9023-42.797 55.676h-50.105c-3.1094 0-6.082 1.3164-8.1719 3.625l-108.07 119.38h-121.17c-2.707 0-5.3203 1-7.3438 2.8047l-78.305 69.973c-4.5391 4.0547-4.9297 11.02-0.875 15.559 2.1758 2.4336 5.1914 3.6797 8.2227 3.6797 2.6133 0 5.2383-0.92578 7.3398-2.8047l75.168-67.172h121.86c3.1094 0 6.082-1.3164 8.1719-3.625l108.06-119.38h50.645c3.4219 0 6.6484-1.5898 8.7383-4.3047z"></path>
  <path d="m231.97 536.32h-48.539c-6.0859 0-11.02 4.9336-11.02 11.02v76.59c0 6.0859 4.9336 11.02 11.02 11.02h48.539c6.0859 0 11.02-4.9336 11.02-11.02v-76.59c0-6.0859-4.9336-11.02-11.02-11.02zm-11.02 76.594h-26.496v-54.551h26.496z"></path>
  <path d="m621.58 338.88h-48.539c-6.0859 0-11.02 4.9336-11.02 11.02v271.63c0 6.0859 4.9336 11.02 11.02 11.02h48.539c6.0859 0 11.02-4.9336 11.02-11.02v-271.63c0-6.0898-4.9336-11.023-11.02-11.023zm-11.023 271.63h-26.496v-249.59h26.496z"></path>
  <path d="m524.18 407.02h-48.539c-6.0859 0-11.02 4.9336-11.02 11.02v203.49c0 6.0859 4.9336 11.02 11.02 11.02h48.539c6.0859 0 11.02-4.9336 11.02-11.02v-203.49c0-6.0859-4.9375-11.023-11.02-11.023zm-11.023 203.49h-26.496v-181.45h26.496z"></path>
  <path d="m426.77 462.12h-48.539c-6.0859 0-11.02 4.9336-11.02 11.02v148.39c0 6.0859 4.9336 11.02 11.02 11.02h48.539c6.0859 0 11.02-4.9336 11.02-11.02v-148.39c0-6.082-4.9336-11.02-11.02-11.02zm-11.02 148.39h-26.496v-126.35h26.496z"></path>
  <path d="m329.37 462.12h-48.539c-6.0859 0-11.02 4.9336-11.02 11.02v148.39c0 6.0859 4.9336 11.02 11.02 11.02l48.539 0.003906c6.0859 0 11.02-4.9336 11.02-11.02v-148.39c0-6.0859-4.9336-11.023-11.02-11.023zm-11.02 148.39h-26.496v-126.35h26.496z"></path>
  <path d="m282.17 394.6c63.289 0 114.78-51.488 114.78-114.77 0-63.289-51.488-114.78-114.78-114.78s-114.77 51.488-114.77 114.78c0 63.285 51.488 114.77 114.77 114.77zm0-207.51c51.133 0 92.734 41.598 92.734 92.734s-41.598 92.734-92.734 92.734c-51.133 0-92.734-41.598-92.734-92.734 0.003906-51.133 41.602-92.734 92.734-92.734z"></path>
  <path d="m274.72 329.36v16.5c0 4.3477 3.5234 7.8711 7.8711 7.8711s7.8711-3.5234 7.8711-7.8711v-16.875c11.613-3.4102 20.121-14.148 20.121-26.848v-1.8398c0-9.668-5.1211-18.812-13.363-23.863l-22.492-13.781c-3.6094-2.2109-5.8477-6.2109-5.8477-10.441 0-6.7539 5.4961-12.25 12.25-12.25h1.457c6.7539 0 12.25 5.4961 12.25 12.25v4.8945c0 4.3477 3.5234 7.8711 7.8711 7.8711 4.3477 0 7.8711-3.5234 7.8711-7.8711v-4.8945c0-12.852-8.7148-23.68-20.535-26.953v-13.91c0-4.3477-3.5234-7.8711-7.8711-7.8711s-7.8711 3.5234-7.8711 7.8711v13.75c-12.137 3.0625-21.164 14.039-21.164 27.113 0 9.6719 5.1211 18.812 13.363 23.863l22.488 13.781c3.6094 2.2109 5.8477 6.2109 5.8477 10.441v1.8398c0 6.7578-5.4961 12.254-12.25 12.254h-1.4531c-6.7539 0-12.25-5.4961-12.25-12.254v-0.56641c0-4.3477-3.5234-7.8711-7.8711-7.8711-4.3477 0-7.8711 3.5234-7.8711 7.8711v0.56641c-0.003906 13.223 9.2266 24.309 21.578 27.223z"></path>
 </g>

      </g>
     <g id="IconSvg_iconCarrier">
      <g xmlns="http://www.w3.org/2000/svg">
  <path d="m609.76 257.91 0.81641 15.453c0.3125 5.8828 5.1758 10.441 10.996 10.441 0.19531 0 0.39063-0.003906 0.59375-0.015625 6.0781-0.32031 10.742-5.5078 10.426-11.586l-2.4648-46.781c0-0.015625-0.007812-0.03125-0.007812-0.046875-0.019532-0.30469-0.097657-0.61328-0.14063-0.92188-0.0625-0.44922-0.10547-0.90234-0.22266-1.332 0-0.003907 0-0.007813-0.003906-0.011719-0.011719-0.050781-0.039062-0.089844-0.054688-0.13672-1.1797-4.1953-4.7109-7.3359-9.0938-7.8906-0.12891-0.019531-0.26172-0.003906-0.39062-0.015625-0.55078-0.050781-1.1055-0.10156-1.6797-0.066406-0.011719 0-0.023438 0.007812-0.039062 0.007812-0.37891 0.023438-0.75391 0.11328-1.1367 0.17578-0.36719 0.058593-0.73828 0.089843-1.0938 0.18359-0.015625 0.003907-0.03125 0.003907-0.046875 0.007813l-44.297 12.051c-5.8711 1.5977-9.3398 7.6562-7.7383 13.527 1.3359 4.9062 5.7773 8.1289 10.629 8.1289 0.95703 0 1.9297-0.125 2.8984-0.39062l14.34-3.9023-42.797 55.676h-50.105c-3.1094 0-6.082 1.3164-8.1719 3.625l-108.07 119.38h-121.17c-2.707 0-5.3203 1-7.3438 2.8047l-78.305 69.973c-4.5391 4.0547-4.9297 11.02-0.875 15.559 2.1758 2.4336 5.1914 3.6797 8.2227 3.6797 2.6133 0 5.2383-0.92578 7.3398-2.8047l75.168-67.172h121.86c3.1094 0 6.082-1.3164 8.1719-3.625l108.06-119.38h50.645c3.4219 0 6.6484-1.5898 8.7383-4.3047z"></path>
  <path d="m231.97 536.32h-48.539c-6.0859 0-11.02 4.9336-11.02 11.02v76.59c0 6.0859 4.9336 11.02 11.02 11.02h48.539c6.0859 0 11.02-4.9336 11.02-11.02v-76.59c0-6.0859-4.9336-11.02-11.02-11.02zm-11.02 76.594h-26.496v-54.551h26.496z"></path>
  <path d="m621.58 338.88h-48.539c-6.0859 0-11.02 4.9336-11.02 11.02v271.63c0 6.0859 4.9336 11.02 11.02 11.02h48.539c6.0859 0 11.02-4.9336 11.02-11.02v-271.63c0-6.0898-4.9336-11.023-11.02-11.023zm-11.023 271.63h-26.496v-249.59h26.496z"></path>
  <path d="m524.18 407.02h-48.539c-6.0859 0-11.02 4.9336-11.02 11.02v203.49c0 6.0859 4.9336 11.02 11.02 11.02h48.539c6.0859 0 11.02-4.9336 11.02-11.02v-203.49c0-6.0859-4.9375-11.023-11.02-11.023zm-11.023 203.49h-26.496v-181.45h26.496z"></path>
  <path d="m426.77 462.12h-48.539c-6.0859 0-11.02 4.9336-11.02 11.02v148.39c0 6.0859 4.9336 11.02 11.02 11.02h48.539c6.0859 0 11.02-4.9336 11.02-11.02v-148.39c0-6.082-4.9336-11.02-11.02-11.02zm-11.02 148.39h-26.496v-126.35h26.496z"></path>
  <path d="m329.37 462.12h-48.539c-6.0859 0-11.02 4.9336-11.02 11.02v148.39c0 6.0859 4.9336 11.02 11.02 11.02l48.539 0.003906c6.0859 0 11.02-4.9336 11.02-11.02v-148.39c0-6.0859-4.9336-11.023-11.02-11.023zm-11.02 148.39h-26.496v-126.35h26.496z"></path>
  <path d="m282.17 394.6c63.289 0 114.78-51.488 114.78-114.77 0-63.289-51.488-114.78-114.78-114.78s-114.77 51.488-114.77 114.78c0 63.285 51.488 114.77 114.77 114.77zm0-207.51c51.133 0 92.734 41.598 92.734 92.734s-41.598 92.734-92.734 92.734c-51.133 0-92.734-41.598-92.734-92.734 0.003906-51.133 41.602-92.734 92.734-92.734z"></path>
  <path d="m274.72 329.36v16.5c0 4.3477 3.5234 7.8711 7.8711 7.8711s7.8711-3.5234 7.8711-7.8711v-16.875c11.613-3.4102 20.121-14.148 20.121-26.848v-1.8398c0-9.668-5.1211-18.812-13.363-23.863l-22.492-13.781c-3.6094-2.2109-5.8477-6.2109-5.8477-10.441 0-6.7539 5.4961-12.25 12.25-12.25h1.457c6.7539 0 12.25 5.4961 12.25 12.25v4.8945c0 4.3477 3.5234 7.8711 7.8711 7.8711 4.3477 0 7.8711-3.5234 7.8711-7.8711v-4.8945c0-12.852-8.7148-23.68-20.535-26.953v-13.91c0-4.3477-3.5234-7.8711-7.8711-7.8711s-7.8711 3.5234-7.8711 7.8711v13.75c-12.137 3.0625-21.164 14.039-21.164 27.113 0 9.6719 5.1211 18.812 13.363 23.863l22.488 13.781c3.6094 2.2109 5.8477 6.2109 5.8477 10.441v1.8398c0 6.7578-5.4961 12.254-12.25 12.254h-1.4531c-6.7539 0-12.25-5.4961-12.25-12.254v-0.56641c0-4.3477-3.5234-7.8711-7.8711-7.8711-4.3477 0-7.8711 3.5234-7.8711 7.8711v0.56641c-0.003906 13.223 9.2266 24.309 21.578 27.223z"></path>
 </g>

      </g>
      </svg>