<svg id="svg" fill="#735557" stroke="#735557" width="200" height="200" version="1.1" viewBox="144 144 512 512" xmlns="http://www.w3.org/2000/svg">
    <g id="IconSvg_bgCarrier" stroke-width="0"></g>
    <g id="IconSvg_tracerCarrier" stroke-linecap="round" stroke-linejoin="round" stroke="#CCCCCC" stroke-width="0">
      <g xmlns="http://www.w3.org/2000/svg">
  <path d="m203.2 636.16h283.39c1.0234 0 2.0469-0.20312 3-0.59766s1.8281-0.96875 2.5664-1.707l62.977-62.977c0.67578-0.67578 1.1562-1.4727 1.543-2.3047 0.10938-0.23438 0.17188-0.48047 0.26172-0.73047 0.22656-0.66016 0.36328-1.3398 0.41016-2.0391 0.003906-0.17969 0.089844-0.32813 0.089844-0.49219v-393.6c0-4.3438-3.5195-7.8711-7.8711-7.8711l-346.37-0.003906c-4.3555 0-7.875 3.5273-7.875 7.875v134.62c-17.938 3.6562-31.488 19.559-31.488 38.562v251.91c0 21.703 17.66 39.359 39.363 39.359zm307.01-393.6h-55.105v-31.488h55.105zm0 15.742v110.21h-55.105v-110.21zm-70.848-15.742h-55.105v-31.488h55.105zm-70.848 0h-55.105v-31.488h55.105zm-70.848 0h-55.105v-31.488h55.105zm-55.105 15.742h55.105v47.23h-55.105zm70.848 0h55.105v47.23h-55.105zm70.848 0h55.105v110.21h-23.617v-23.617c0-19.004-13.547-34.906-31.488-38.566zm110.21 350.98v-36.102h36.102zm-283.39-429.7h330.62v377.86h-55.105c-4.3516 0-7.8711 3.5273-7.8711 7.8711v55.105h-70.863c0.22656-0.30859 0.40234-0.66016 0.62109-0.97656 0.44922-0.63672 0.84375-1.3086 1.25-1.9766 0.83594-1.3398 1.5898-2.7148 2.2578-4.1562 0.35547-0.75391 0.69141-1.5195 0.99219-2.2969 0.58984-1.5273 1.0625-3.0938 1.4648-4.707 0.17969-0.73828 0.41016-1.4492 0.55078-2.2031 0.46094-2.3711 0.75-4.7969 0.75-7.2969v-212.55h102.34c4.3516 0 7.8711-3.5273 7.8711-7.8711v-173.18c0-4.3438-3.5195-7.8711-7.8711-7.8711l-283.39-0.003906c-4.3516 0-7.8711 3.5273-7.8711 7.8711v102.34l-15.746 0.003906zm-31.488 165.31c0-13.02 10.598-23.617 23.617-23.617h173.18c13.02 0 23.617 10.598 23.617 23.617v251.91c0 13.02-10.598 23.617-23.617 23.617l-173.18-0.003907c-13.02 0-23.617-10.598-23.617-23.617z"></path>
  <path d="m634.59 229.96-23.617-31.488c-2.9688-3.9688-9.6289-3.9688-12.594 0l-23.617 31.488c-1.0234 1.3633-1.5742 3.0234-1.5742 4.7266v369.98c0 17.367 14.121 31.488 31.488 31.488s31.488-14.121 31.488-31.488v-369.98c0-1.7031-0.55078-3.3633-1.5742-4.7266zm-29.914-13.641 15.742 20.996v5.2422h-31.488v-5.25zm-15.746 325.38v-283.39h31.488v283.39zm31.488 15.742v15.742h-31.488v-15.742zm-15.742 62.977c-8.6836 0-15.742-7.0625-15.742-15.742v-15.742h31.488v15.742c-0.003907 8.6836-7.0625 15.742-15.746 15.742z"></path>
  <path d="m203.2 407.87h173.18c4.3516 0 7.8711-3.5273 7.8711-7.8711v-47.23c0-4.3438-3.5195-7.8711-7.8711-7.8711l-173.18-0.003907c-4.3516 0-7.8711 3.5273-7.8711 7.8711v47.23c-0.003906 4.3477 3.5156 7.875 7.8711 7.875zm7.8711-47.234h157.44v31.488h-157.44z"></path>
  <path d="m384.25 486.59h-47.23c-4.3516 0-7.8711 3.5273-7.8711 7.8711v94.465c0 4.3438 3.5195 7.8711 7.8711 7.8711h47.23c4.3516 0 7.8711-3.5273 7.8711-7.8711v-94.465c0-4.3438-3.5156-7.8711-7.8711-7.8711zm-7.8711 94.465h-31.488v-78.719h31.488z"></path>
  <path d="m337.02 423.61c-4.3516 0-7.8711 3.5273-7.8711 7.8711v31.488c0 4.3438 3.5195 7.8711 7.8711 7.8711h47.23c4.3516 0 7.8711-3.5273 7.8711-7.8711v-31.488c0-4.3438-3.5195-7.8711-7.8711-7.8711zm39.359 31.488h-31.488v-15.742h31.488z"></path>
  <path d="m313.41 486.59h-47.23c-4.3516 0-7.8711 3.5273-7.8711 7.8711v31.488c0 4.3438 3.5195 7.8711 7.8711 7.8711h47.23c4.3516 0 7.8711-3.5273 7.8711-7.8711v-31.488c0-4.3438-3.5195-7.8711-7.8711-7.8711zm-7.8711 31.488h-31.488v-15.742h31.488z"></path>
  <path d="m313.41 423.61h-47.23c-4.3516 0-7.8711 3.5273-7.8711 7.8711v31.488c0 4.3438 3.5195 7.8711 7.8711 7.8711h47.23c4.3516 0 7.8711-3.5273 7.8711-7.8711v-31.488c0-4.3438-3.5195-7.8711-7.8711-7.8711zm-7.8711 31.488h-31.488v-15.742h31.488z"></path>
  <path d="m195.32 533.82h47.23c4.3516 0 7.8711-3.5273 7.8711-7.8711v-31.488c0-4.3438-3.5195-7.8711-7.8711-7.8711l-47.23-0.003906c-4.3516 0-7.8711 3.5273-7.8711 7.8711v31.488c0 4.3477 3.5195 7.875 7.8711 7.875zm7.875-31.488h31.488v15.742h-31.488z"></path>
  <path d="m195.32 470.85h47.23c4.3516 0 7.8711-3.5273 7.8711-7.8711v-31.488c0-4.3438-3.5195-7.8711-7.8711-7.8711l-47.23-0.003907c-4.3516 0-7.8711 3.5273-7.8711 7.8711v31.488c0 4.3477 3.5195 7.875 7.8711 7.875zm7.875-31.488h31.488v15.742h-31.488z"></path>
  <path d="m313.41 549.57h-47.23c-4.3516 0-7.8711 3.5273-7.8711 7.8711v31.488c0 4.3438 3.5195 7.8711 7.8711 7.8711h47.23c4.3516 0 7.8711-3.5273 7.8711-7.8711v-31.488c0-4.3438-3.5195-7.8711-7.8711-7.8711zm-7.8711 31.488h-31.488v-15.742h31.488z"></path>
  <path d="m195.32 596.8h47.23c4.3516 0 7.8711-3.5273 7.8711-7.8711v-31.488c0-4.3438-3.5195-7.8711-7.8711-7.8711l-47.23-0.003906c-4.3516 0-7.8711 3.5273-7.8711 7.8711v31.488c0 4.3477 3.5195 7.875 7.8711 7.875zm7.875-31.488h31.488v15.742h-31.488z"></path>
 </g>

      </g>
     <g id="IconSvg_iconCarrier">
      <g xmlns="http://www.w3.org/2000/svg">
  <path d="m203.2 636.16h283.39c1.0234 0 2.0469-0.20312 3-0.59766s1.8281-0.96875 2.5664-1.707l62.977-62.977c0.67578-0.67578 1.1562-1.4727 1.543-2.3047 0.10938-0.23438 0.17188-0.48047 0.26172-0.73047 0.22656-0.66016 0.36328-1.3398 0.41016-2.0391 0.003906-0.17969 0.089844-0.32813 0.089844-0.49219v-393.6c0-4.3438-3.5195-7.8711-7.8711-7.8711l-346.37-0.003906c-4.3555 0-7.875 3.5273-7.875 7.875v134.62c-17.938 3.6562-31.488 19.559-31.488 38.562v251.91c0 21.703 17.66 39.359 39.363 39.359zm307.01-393.6h-55.105v-31.488h55.105zm0 15.742v110.21h-55.105v-110.21zm-70.848-15.742h-55.105v-31.488h55.105zm-70.848 0h-55.105v-31.488h55.105zm-70.848 0h-55.105v-31.488h55.105zm-55.105 15.742h55.105v47.23h-55.105zm70.848 0h55.105v47.23h-55.105zm70.848 0h55.105v110.21h-23.617v-23.617c0-19.004-13.547-34.906-31.488-38.566zm110.21 350.98v-36.102h36.102zm-283.39-429.7h330.62v377.86h-55.105c-4.3516 0-7.8711 3.5273-7.8711 7.8711v55.105h-70.863c0.22656-0.30859 0.40234-0.66016 0.62109-0.97656 0.44922-0.63672 0.84375-1.3086 1.25-1.9766 0.83594-1.3398 1.5898-2.7148 2.2578-4.1562 0.35547-0.75391 0.69141-1.5195 0.99219-2.2969 0.58984-1.5273 1.0625-3.0938 1.4648-4.707 0.17969-0.73828 0.41016-1.4492 0.55078-2.2031 0.46094-2.3711 0.75-4.7969 0.75-7.2969v-212.55h102.34c4.3516 0 7.8711-3.5273 7.8711-7.8711v-173.18c0-4.3438-3.5195-7.8711-7.8711-7.8711l-283.39-0.003906c-4.3516 0-7.8711 3.5273-7.8711 7.8711v102.34l-15.746 0.003906zm-31.488 165.31c0-13.02 10.598-23.617 23.617-23.617h173.18c13.02 0 23.617 10.598 23.617 23.617v251.91c0 13.02-10.598 23.617-23.617 23.617l-173.18-0.003907c-13.02 0-23.617-10.598-23.617-23.617z"></path>
  <path d="m634.59 229.96-23.617-31.488c-2.9688-3.9688-9.6289-3.9688-12.594 0l-23.617 31.488c-1.0234 1.3633-1.5742 3.0234-1.5742 4.7266v369.98c0 17.367 14.121 31.488 31.488 31.488s31.488-14.121 31.488-31.488v-369.98c0-1.7031-0.55078-3.3633-1.5742-4.7266zm-29.914-13.641 15.742 20.996v5.2422h-31.488v-5.25zm-15.746 325.38v-283.39h31.488v283.39zm31.488 15.742v15.742h-31.488v-15.742zm-15.742 62.977c-8.6836 0-15.742-7.0625-15.742-15.742v-15.742h31.488v15.742c-0.003907 8.6836-7.0625 15.742-15.746 15.742z"></path>
  <path d="m203.2 407.87h173.18c4.3516 0 7.8711-3.5273 7.8711-7.8711v-47.23c0-4.3438-3.5195-7.8711-7.8711-7.8711l-173.18-0.003907c-4.3516 0-7.8711 3.5273-7.8711 7.8711v47.23c-0.003906 4.3477 3.5156 7.875 7.8711 7.875zm7.8711-47.234h157.44v31.488h-157.44z"></path>
  <path d="m384.25 486.59h-47.23c-4.3516 0-7.8711 3.5273-7.8711 7.8711v94.465c0 4.3438 3.5195 7.8711 7.8711 7.8711h47.23c4.3516 0 7.8711-3.5273 7.8711-7.8711v-94.465c0-4.3438-3.5156-7.8711-7.8711-7.8711zm-7.8711 94.465h-31.488v-78.719h31.488z"></path>
  <path d="m337.02 423.61c-4.3516 0-7.8711 3.5273-7.8711 7.8711v31.488c0 4.3438 3.5195 7.8711 7.8711 7.8711h47.23c4.3516 0 7.8711-3.5273 7.8711-7.8711v-31.488c0-4.3438-3.5195-7.8711-7.8711-7.8711zm39.359 31.488h-31.488v-15.742h31.488z"></path>
  <path d="m313.41 486.59h-47.23c-4.3516 0-7.8711 3.5273-7.8711 7.8711v31.488c0 4.3438 3.5195 7.8711 7.8711 7.8711h47.23c4.3516 0 7.8711-3.5273 7.8711-7.8711v-31.488c0-4.3438-3.5195-7.8711-7.8711-7.8711zm-7.8711 31.488h-31.488v-15.742h31.488z"></path>
  <path d="m313.41 423.61h-47.23c-4.3516 0-7.8711 3.5273-7.8711 7.8711v31.488c0 4.3438 3.5195 7.8711 7.8711 7.8711h47.23c4.3516 0 7.8711-3.5273 7.8711-7.8711v-31.488c0-4.3438-3.5195-7.8711-7.8711-7.8711zm-7.8711 31.488h-31.488v-15.742h31.488z"></path>
  <path d="m195.32 533.82h47.23c4.3516 0 7.8711-3.5273 7.8711-7.8711v-31.488c0-4.3438-3.5195-7.8711-7.8711-7.8711l-47.23-0.003906c-4.3516 0-7.8711 3.5273-7.8711 7.8711v31.488c0 4.3477 3.5195 7.875 7.8711 7.875zm7.875-31.488h31.488v15.742h-31.488z"></path>
  <path d="m195.32 470.85h47.23c4.3516 0 7.8711-3.5273 7.8711-7.8711v-31.488c0-4.3438-3.5195-7.8711-7.8711-7.8711l-47.23-0.003907c-4.3516 0-7.8711 3.5273-7.8711 7.8711v31.488c0 4.3477 3.5195 7.875 7.8711 7.875zm7.875-31.488h31.488v15.742h-31.488z"></path>
  <path d="m313.41 549.57h-47.23c-4.3516 0-7.8711 3.5273-7.8711 7.8711v31.488c0 4.3438 3.5195 7.8711 7.8711 7.8711h47.23c4.3516 0 7.8711-3.5273 7.8711-7.8711v-31.488c0-4.3438-3.5195-7.8711-7.8711-7.8711zm-7.8711 31.488h-31.488v-15.742h31.488z"></path>
  <path d="m195.32 596.8h47.23c4.3516 0 7.8711-3.5273 7.8711-7.8711v-31.488c0-4.3438-3.5195-7.8711-7.8711-7.8711l-47.23-0.003906c-4.3516 0-7.8711 3.5273-7.8711 7.8711v31.488c0 4.3477 3.5195 7.875 7.8711 7.875zm7.875-31.488h31.488v15.742h-31.488z"></path>
 </g>

      </g>
      </svg>